# xmcd
# 
# Track frame offsets:
#     150
#     15813
#     28196
#     41864
#     55086
#     70628
#     85050
#     97548
#     111620
#     124047
#     137009
#     150695
# 
# Disc length: 2140
# 
# Revision: 1
# Processed by: cddbd v1.5.2PL0 Copyright (c) Steve Scherf et al.
# Submitted via: BonkEnc v1.0.8
# 
DISCID=8f085a0c
DTITLE=Nat King Cole - Nat King Cole
DYEAR=0
DGENRE=Jazz
TTITLE0=Nat King Cole - Mona Lisa
TTITLE1=Nat King Cole - Autumn Leaves
TTITLE2=Nat King Cole - Somewhere Along The Way
TTITLE3=Nat King Cole - Nature Boy
TTITLE4=Nat King Cole - Too Young
TTITLE5=Nat King Cole - Faith Can Move Mountains
TTITLE6=Nat King Cole - Pretend
TTITLE7=Nat King Cole - Portrait Of Jennie
TTITLE8=Nat King Cole - It's Crazy But I'm In Love
TTITLE9=Nat King Cole - Route 66
TTITLE10=Nat King Cole - Cuba
TTITLE11=Nat King Cole - To The Ends Of The Earth
EXTD=
EXTT0=
EXTT1=
EXTT2=
EXTT3=
EXTT4=
EXTT5=
EXTT6=
EXTT7=
EXTT8=
EXTT9=
EXTT10=
EXTT11=
PLAYORDER=
